G75*
%MOIN*%
%OFA0B0*%
%FSLAX24Y24*%
%IPPOS*%
%LPD*%
%AMOC8*
5,1,8,0,0,1.08239X$1,22.5*
%
%ADD10C,0.0040*%
%ADD11C,0.0050*%
%ADD12C,0.0080*%
%ADD13C,0.0060*%
%ADD14R,0.0236X0.0620*%
%ADD15C,0.0110*%
%ADD16C,0.0100*%
D10*
X003715Y001720D02*
X003775Y001660D01*
X003895Y001660D01*
X003955Y001720D01*
X004083Y001720D02*
X004083Y001780D01*
X004143Y001840D01*
X004264Y001840D01*
X004324Y001900D01*
X004324Y001960D01*
X004264Y002020D01*
X004143Y002020D01*
X004083Y001960D01*
X003955Y001960D02*
X003955Y001900D01*
X003895Y001840D01*
X003775Y001840D01*
X003715Y001780D01*
X003715Y001720D01*
X004083Y001720D02*
X004143Y001660D01*
X004264Y001660D01*
X004324Y001720D01*
X004452Y001660D02*
X004452Y001900D01*
X004572Y002020D01*
X004692Y001900D01*
X004692Y001660D01*
X004820Y001840D02*
X004880Y001780D01*
X005060Y001780D01*
X005060Y001660D02*
X005060Y002020D01*
X004880Y002020D01*
X004820Y001960D01*
X004820Y001840D01*
X004692Y001840D02*
X004452Y001840D01*
X003955Y001960D02*
X003895Y002020D01*
X003775Y002020D01*
X003715Y001960D01*
X005188Y001960D02*
X005188Y002020D01*
X005188Y001960D02*
X005308Y001840D01*
X005308Y001660D01*
X005557Y001720D02*
X005557Y001780D01*
X005617Y001840D01*
X005797Y001840D01*
X005797Y001660D02*
X005797Y002020D01*
X005617Y002020D01*
X005557Y001960D01*
X005557Y001900D01*
X005617Y001840D01*
X005429Y001960D02*
X005308Y001840D01*
X005429Y001960D02*
X005429Y002020D01*
X005557Y001720D02*
X005617Y001660D01*
X005797Y001660D01*
X011010Y003647D02*
X011010Y003767D01*
X011070Y003827D01*
X011070Y003955D02*
X011010Y004015D01*
X011010Y004135D01*
X011070Y004195D01*
X011190Y004323D02*
X011190Y004564D01*
X011190Y004692D02*
X011190Y004872D01*
X011130Y004932D01*
X011070Y004932D01*
X011010Y004872D01*
X011010Y004692D01*
X011370Y004692D01*
X011370Y004872D01*
X011310Y004932D01*
X011250Y004932D01*
X011190Y004872D01*
X011310Y005060D02*
X011190Y005180D01*
X011010Y005180D01*
X011190Y005180D02*
X011310Y005300D01*
X011370Y005300D01*
X011540Y005271D02*
X011540Y005211D01*
X011540Y005271D02*
X011600Y005331D01*
X011900Y005331D01*
X011900Y005151D01*
X011840Y005091D01*
X011720Y005091D01*
X011660Y005151D01*
X011660Y005331D01*
X011660Y005459D02*
X012020Y005459D01*
X011900Y005519D02*
X011900Y005639D01*
X011840Y005699D01*
X011660Y005699D01*
X011720Y005887D02*
X011660Y005947D01*
X011720Y005887D02*
X011960Y005887D01*
X011900Y005827D02*
X011900Y005947D01*
X011840Y006073D02*
X011900Y006133D01*
X011900Y006313D01*
X011780Y006253D02*
X011780Y006133D01*
X011840Y006073D01*
X011660Y006073D02*
X011660Y006253D01*
X011720Y006313D01*
X011780Y006253D01*
X011720Y006441D02*
X011660Y006441D01*
X011660Y006501D01*
X011720Y006501D01*
X011720Y006441D01*
X011720Y006625D02*
X011660Y006685D01*
X011660Y006866D01*
X011720Y006994D02*
X011660Y007054D01*
X011660Y007174D01*
X011720Y007234D01*
X011840Y007234D01*
X011900Y007174D01*
X011900Y007054D01*
X011840Y006994D01*
X011720Y006994D01*
X011900Y006866D02*
X011900Y006685D01*
X011840Y006625D01*
X011720Y006625D01*
X011370Y006285D02*
X011250Y006405D01*
X011010Y006405D01*
X011190Y006405D02*
X011190Y006165D01*
X011250Y006165D02*
X011370Y006285D01*
X011250Y006165D02*
X011010Y006165D01*
X011070Y006037D02*
X011010Y005977D01*
X011010Y005857D01*
X011070Y005797D01*
X011190Y005857D02*
X011190Y005977D01*
X011130Y006037D01*
X011070Y006037D01*
X011310Y006037D02*
X011370Y005977D01*
X011370Y005857D01*
X011310Y005797D01*
X011250Y005797D01*
X011190Y005857D01*
X011190Y005669D02*
X011190Y005428D01*
X011840Y005459D02*
X011900Y005519D01*
X011370Y005060D02*
X011310Y005060D01*
X011660Y004963D02*
X011900Y004963D01*
X011660Y004963D02*
X011660Y004782D01*
X011720Y004722D01*
X011900Y004722D01*
X011840Y004594D02*
X011900Y004534D01*
X011900Y004414D01*
X011840Y004354D01*
X011720Y004354D01*
X011660Y004414D01*
X011660Y004534D01*
X011720Y004594D01*
X011840Y004594D01*
X011840Y004226D02*
X011660Y004226D01*
X011840Y004226D02*
X011900Y004166D01*
X011900Y004046D01*
X011840Y003986D01*
X012020Y003986D02*
X011660Y003986D01*
X011370Y004015D02*
X011370Y004135D01*
X011310Y004195D01*
X011370Y004015D02*
X011310Y003955D01*
X011070Y003955D01*
X011310Y003827D02*
X011370Y003767D01*
X011370Y003647D01*
X011310Y003587D01*
X011070Y003587D01*
X011010Y003647D01*
X011660Y003860D02*
X011720Y003800D01*
X011960Y003800D01*
X011900Y003740D02*
X011900Y003860D01*
X011840Y003612D02*
X011840Y003372D01*
X011900Y003246D02*
X011900Y003126D01*
X011960Y003186D02*
X011720Y003186D01*
X011660Y003246D01*
X011720Y002998D02*
X011660Y002938D01*
X011660Y002818D01*
X011720Y002758D01*
X011840Y002758D01*
X011900Y002818D01*
X011900Y002938D01*
X011840Y002998D01*
X011720Y002998D01*
X011720Y002630D02*
X011840Y002630D01*
X011900Y002570D01*
X011900Y002390D01*
X012020Y002390D02*
X011660Y002390D01*
X011660Y002570D01*
X011720Y002630D01*
X014610Y003225D02*
X014730Y003345D01*
X014970Y003345D01*
X014910Y003473D02*
X014670Y003473D01*
X014610Y003533D01*
X014610Y003654D01*
X014670Y003714D01*
X014670Y003842D02*
X014610Y003902D01*
X014610Y004022D01*
X014670Y004082D01*
X014910Y004082D02*
X014970Y004022D01*
X014970Y003902D01*
X014910Y003842D01*
X014670Y003842D01*
X014910Y003714D02*
X014970Y003654D01*
X014970Y003533D01*
X014910Y003473D01*
X014610Y003225D02*
X014730Y003105D01*
X014970Y003105D01*
X015410Y003165D02*
X015410Y003285D01*
X015470Y003345D01*
X015590Y003345D01*
X015590Y003225D01*
X015470Y003105D02*
X015410Y003165D01*
X015470Y003105D02*
X015710Y003105D01*
X015770Y003165D01*
X015770Y003285D01*
X015710Y003345D01*
X015770Y003473D02*
X015410Y003714D01*
X015770Y003714D01*
X015770Y003842D02*
X015770Y004022D01*
X015710Y004082D01*
X015470Y004082D01*
X015410Y004022D01*
X015410Y003842D01*
X015770Y003842D01*
X015770Y003473D02*
X015410Y003473D01*
X015910Y004220D02*
X015910Y004400D01*
X015970Y004460D01*
X016030Y004460D01*
X016090Y004400D01*
X016090Y004220D01*
X015910Y004220D02*
X016270Y004220D01*
X016270Y004400D01*
X016210Y004460D01*
X016150Y004460D01*
X016090Y004400D01*
X015970Y004588D02*
X015910Y004648D01*
X015910Y004768D01*
X015970Y004829D01*
X016210Y004829D01*
X016270Y004768D01*
X016270Y004648D01*
X016210Y004588D01*
X015970Y004588D01*
X015910Y004957D02*
X015910Y005197D01*
X016090Y005077D02*
X016090Y004957D01*
X016270Y004957D02*
X015910Y004957D01*
X016270Y004957D02*
X016270Y005197D01*
X016350Y005305D02*
X016350Y004200D01*
X011900Y007362D02*
X011660Y007362D01*
X011660Y007482D02*
X011840Y007482D01*
X011900Y007542D01*
X011840Y007602D01*
X011660Y007602D01*
X011840Y007482D02*
X011900Y007422D01*
X011900Y007362D01*
X006718Y005626D02*
X006658Y005686D01*
X006537Y005686D01*
X006477Y005626D01*
X006477Y005566D01*
X006537Y005506D01*
X006477Y005446D01*
X006477Y005386D01*
X006537Y005326D01*
X006658Y005326D01*
X006718Y005386D01*
X006598Y005506D02*
X006537Y005506D01*
X006349Y005446D02*
X006229Y005326D01*
X006109Y005446D01*
X006109Y005686D01*
X005981Y005626D02*
X005921Y005686D01*
X005801Y005686D01*
X005741Y005626D01*
X005741Y005566D01*
X005801Y005506D01*
X005741Y005446D01*
X005741Y005386D01*
X005801Y005326D01*
X005921Y005326D01*
X005981Y005386D01*
X005861Y005506D02*
X005801Y005506D01*
X005613Y005506D02*
X005493Y005506D01*
X005613Y005326D02*
X005613Y005686D01*
X005372Y005686D01*
X005244Y005686D02*
X005004Y005686D01*
X005124Y005686D02*
X005124Y005326D01*
X004876Y005326D02*
X004696Y005326D01*
X004636Y005386D01*
X004636Y005626D01*
X004696Y005686D01*
X004876Y005686D01*
X004876Y005326D01*
X004508Y005326D02*
X004388Y005326D01*
X004448Y005326D02*
X004448Y005686D01*
X004508Y005686D02*
X004388Y005686D01*
X006349Y005686D02*
X006349Y005446D01*
D11*
X012300Y005130D02*
X012300Y004910D01*
X012430Y004830D01*
X012430Y005230D01*
X012300Y005130D01*
X012307Y005136D02*
X012430Y005136D01*
X012430Y005184D02*
X012370Y005184D01*
X012430Y005087D02*
X012300Y005087D01*
X012300Y005039D02*
X012430Y005039D01*
X012430Y004990D02*
X012300Y004990D01*
X012300Y004942D02*
X012430Y004942D01*
X012430Y004893D02*
X012328Y004893D01*
X012406Y004845D02*
X012430Y004845D01*
X014944Y002090D02*
X014944Y002015D01*
X014944Y001865D02*
X014944Y001565D01*
X015019Y001565D02*
X014869Y001565D01*
X014712Y001640D02*
X014712Y001790D01*
X014637Y001865D01*
X014412Y001865D01*
X014412Y002015D02*
X014412Y001565D01*
X014637Y001565D01*
X014712Y001640D01*
X014252Y001640D02*
X014252Y001790D01*
X014177Y001865D01*
X014026Y001865D01*
X013951Y001790D01*
X013951Y001715D01*
X014252Y001715D01*
X014252Y001640D02*
X014177Y001565D01*
X014026Y001565D01*
X013791Y001565D02*
X013791Y001640D01*
X013716Y001640D01*
X013716Y001565D01*
X013791Y001565D01*
X013791Y001790D02*
X013716Y001790D01*
X013716Y001865D01*
X013791Y001865D01*
X013791Y001790D01*
X013101Y001790D02*
X013101Y001640D01*
X013026Y001565D01*
X012800Y001565D01*
X012800Y001490D02*
X012800Y001865D01*
X013026Y001865D01*
X013101Y001790D01*
X012800Y001490D02*
X012875Y001415D01*
X012951Y001415D01*
X012640Y001640D02*
X012565Y001565D01*
X012415Y001565D01*
X012340Y001640D01*
X012340Y001790D01*
X012415Y001865D01*
X012565Y001865D01*
X012640Y001790D01*
X012640Y001640D01*
X012180Y001640D02*
X012180Y001790D01*
X012105Y001865D01*
X011955Y001865D01*
X011880Y001790D01*
X011880Y001640D01*
X011955Y001565D01*
X012105Y001565D01*
X012180Y001640D01*
X011720Y001640D02*
X011644Y001640D01*
X011644Y001565D01*
X011720Y001565D01*
X011720Y001640D01*
X011489Y001640D02*
X011489Y001790D01*
X011414Y001865D01*
X011189Y001865D01*
X011189Y001490D01*
X011264Y001415D01*
X011339Y001415D01*
X011414Y001565D02*
X011189Y001565D01*
X011029Y001565D02*
X010879Y001565D01*
X010954Y001565D02*
X010954Y002015D01*
X011029Y002015D01*
X010722Y001565D02*
X010422Y002015D01*
X010262Y002015D02*
X010262Y001940D01*
X010111Y001790D01*
X010111Y001565D01*
X010111Y001790D02*
X009961Y001940D01*
X009961Y002015D01*
X009801Y001790D02*
X009726Y001865D01*
X009501Y001865D01*
X009501Y002015D02*
X009501Y001565D01*
X009726Y001565D01*
X009801Y001640D01*
X009801Y001790D01*
X009341Y001790D02*
X009266Y001865D01*
X009116Y001865D01*
X009041Y001790D01*
X009041Y001565D01*
X008880Y001640D02*
X008880Y001790D01*
X008805Y001865D01*
X008655Y001865D01*
X008580Y001790D01*
X008580Y001715D01*
X008880Y001715D01*
X008880Y001640D02*
X008805Y001565D01*
X008655Y001565D01*
X008420Y001640D02*
X008345Y001565D01*
X008120Y001565D01*
X008120Y001865D01*
X007960Y002015D02*
X007659Y002015D01*
X007659Y001940D01*
X007960Y001640D01*
X007960Y001565D01*
X008420Y001640D02*
X008420Y001865D01*
X009341Y002015D02*
X009341Y001565D01*
X011414Y001565D02*
X011489Y001640D01*
X014944Y001865D02*
X015019Y001865D01*
X015179Y001865D02*
X015179Y001565D01*
X015404Y001565D01*
X015479Y001640D01*
X015479Y001865D01*
X015640Y001790D02*
X015790Y001790D01*
X015640Y001790D02*
X015640Y001640D01*
X015715Y001565D01*
X015865Y001565D01*
X015940Y001640D01*
X015940Y001940D01*
X015865Y002015D01*
X015715Y002015D01*
X015640Y001940D01*
X016559Y001865D02*
X016634Y001865D01*
X016784Y001715D01*
X016784Y001565D02*
X016784Y001865D01*
X016944Y001790D02*
X016944Y001715D01*
X017244Y001715D01*
X017244Y001640D02*
X017169Y001565D01*
X017019Y001565D01*
X017244Y001640D02*
X017244Y001790D01*
X017169Y001865D01*
X017019Y001865D01*
X016944Y001790D01*
X017404Y001865D02*
X017630Y001865D01*
X017705Y001790D01*
X017630Y001715D01*
X017479Y001715D01*
X017404Y001640D01*
X017479Y001565D01*
X017705Y001565D01*
X017865Y001640D02*
X017865Y002015D01*
X018165Y002015D02*
X018165Y001640D01*
X018090Y001565D01*
X017940Y001565D01*
X017865Y001640D01*
D12*
X009590Y003250D02*
X009590Y005830D01*
X008290Y005830D01*
X008290Y003250D01*
X009590Y003250D01*
X006830Y004503D02*
X006830Y005133D01*
X006829Y005133D02*
X006824Y005149D01*
X006816Y005165D01*
X006806Y005179D01*
X006794Y005191D01*
X006779Y005201D01*
X006763Y005208D01*
X006746Y005212D01*
X006729Y005213D01*
X006711Y005211D01*
X006161Y005211D02*
X006141Y005213D01*
X006122Y005211D01*
X006103Y005205D01*
X006086Y005196D01*
X006070Y005184D01*
X006058Y005169D01*
X006049Y005151D01*
X006043Y005133D01*
X006042Y005133D02*
X006042Y004503D01*
X006043Y004502D02*
X006049Y004484D01*
X006058Y004466D01*
X006070Y004451D01*
X006086Y004439D01*
X006103Y004430D01*
X006122Y004424D01*
X006141Y004422D01*
X006161Y004424D01*
X006711Y004424D02*
X006729Y004422D01*
X006746Y004423D01*
X006763Y004427D01*
X006779Y004434D01*
X006794Y004444D01*
X006806Y004456D01*
X006816Y004470D01*
X006824Y004486D01*
X006829Y004502D01*
X004875Y004325D02*
X004205Y004325D01*
X004205Y003955D02*
X004875Y003955D01*
X004875Y003325D02*
X004205Y003325D01*
X004329Y002934D02*
X003699Y002934D01*
X003699Y002933D02*
X003683Y002928D01*
X003667Y002920D01*
X003653Y002910D01*
X003641Y002898D01*
X003631Y002883D01*
X003624Y002867D01*
X003620Y002850D01*
X003619Y002833D01*
X003621Y002815D01*
X004330Y002933D02*
X004346Y002928D01*
X004362Y002920D01*
X004376Y002910D01*
X004388Y002898D01*
X004398Y002883D01*
X004405Y002867D01*
X004409Y002850D01*
X004410Y002833D01*
X004408Y002815D01*
X004408Y002265D02*
X004410Y002247D01*
X004409Y002230D01*
X004405Y002213D01*
X004398Y002197D01*
X004388Y002182D01*
X004376Y002170D01*
X004362Y002160D01*
X004346Y002152D01*
X004330Y002147D01*
X004329Y002146D02*
X003699Y002146D01*
X003699Y002147D02*
X003683Y002152D01*
X003667Y002160D01*
X003653Y002170D01*
X003641Y002182D01*
X003631Y002197D01*
X003624Y002213D01*
X003620Y002230D01*
X003619Y002247D01*
X003621Y002265D01*
X004205Y004955D02*
X004875Y004955D01*
D13*
X000440Y000590D02*
X000690Y000340D01*
X001190Y000340D01*
X001440Y000590D01*
X001440Y001090D01*
X001190Y001340D01*
X000690Y001340D01*
X000440Y001090D01*
X000440Y000590D01*
X001440Y000590D02*
X001440Y001090D01*
X001690Y001340D01*
X002190Y001340D01*
X002440Y001090D01*
X002440Y000590D01*
X002190Y000340D01*
X001690Y000340D01*
X001440Y000590D01*
X002440Y000590D02*
X002440Y001090D01*
X002690Y001340D01*
X003190Y001340D01*
X003440Y001090D01*
X003690Y001340D01*
X004190Y001340D01*
X004440Y001090D01*
X004440Y000590D01*
X004190Y000340D01*
X003690Y000340D01*
X003440Y000590D01*
X003440Y001090D01*
X003440Y000590D02*
X003190Y000340D01*
X002690Y000340D01*
X002440Y000590D01*
X004440Y000590D02*
X004690Y000340D01*
X005190Y000340D01*
X005440Y000590D01*
X005690Y000340D01*
X006190Y000340D01*
X006440Y000590D01*
X006690Y000340D01*
X007190Y000340D01*
X007440Y000590D01*
X007440Y001090D01*
X007190Y001340D01*
X006690Y001340D01*
X006440Y001090D01*
X006190Y001340D01*
X005690Y001340D01*
X005440Y001090D01*
X005190Y001340D01*
X004690Y001340D01*
X004440Y001090D01*
X005440Y001090D02*
X005440Y000590D01*
X006440Y000590D02*
X006440Y001090D01*
X007440Y001090D02*
X007690Y001340D01*
X008190Y001340D01*
X008440Y001090D01*
X008690Y001340D01*
X009190Y001340D01*
X009440Y001090D01*
X009690Y001340D01*
X010190Y001340D01*
X010440Y001090D01*
X010440Y000590D01*
X010190Y000340D01*
X009690Y000340D01*
X009440Y000590D01*
X009440Y001090D01*
X009440Y000590D02*
X009190Y000340D01*
X008690Y000340D01*
X008440Y000590D01*
X008440Y001090D01*
X008440Y000590D02*
X008190Y000340D01*
X007690Y000340D01*
X007440Y000590D01*
X010440Y000590D02*
X010690Y000340D01*
X011190Y000340D01*
X011440Y000590D01*
X011690Y000340D01*
X012190Y000340D01*
X012440Y000590D01*
X012690Y000340D01*
X013190Y000340D01*
X013440Y000590D01*
X013440Y001090D01*
X013190Y001340D01*
X012690Y001340D01*
X012440Y001090D01*
X012190Y001340D01*
X011690Y001340D01*
X011440Y001090D01*
X011190Y001340D01*
X010690Y001340D01*
X010440Y001090D01*
X011440Y001090D02*
X011440Y000590D01*
X012440Y000590D02*
X012440Y001090D01*
X013440Y001090D02*
X013690Y001340D01*
X014190Y001340D01*
X014440Y001090D01*
X014690Y001340D01*
X015190Y001340D01*
X015440Y001090D01*
X015690Y001340D01*
X016190Y001340D01*
X016440Y001090D01*
X016440Y000590D01*
X016190Y000340D01*
X015690Y000340D01*
X015440Y000590D01*
X015440Y001090D01*
X015440Y000590D02*
X015190Y000340D01*
X014690Y000340D01*
X014440Y000590D01*
X014440Y001090D01*
X014440Y000590D02*
X014190Y000340D01*
X013690Y000340D01*
X013440Y000590D01*
X016440Y000590D02*
X016690Y000340D01*
X017190Y000340D01*
X017440Y000590D01*
X017690Y000340D01*
X018190Y000340D01*
X018440Y000590D01*
X018440Y001090D01*
X018190Y001340D01*
X017690Y001340D01*
X017440Y001090D01*
X017190Y001340D01*
X016690Y001340D01*
X016440Y001090D01*
X017440Y001090D02*
X017440Y000590D01*
X015680Y004240D02*
X014680Y004240D01*
X014663Y004242D01*
X014646Y004246D01*
X014630Y004253D01*
X014616Y004263D01*
X014603Y004276D01*
X014593Y004290D01*
X014586Y004306D01*
X014582Y004323D01*
X014580Y004340D01*
X014580Y004940D01*
X014582Y004957D01*
X014586Y004974D01*
X014593Y004990D01*
X014603Y005004D01*
X014616Y005017D01*
X014630Y005027D01*
X014646Y005034D01*
X014663Y005038D01*
X014680Y005040D01*
X015680Y005040D01*
X015697Y005038D01*
X015714Y005034D01*
X015730Y005027D01*
X015744Y005017D01*
X015757Y005004D01*
X015767Y004990D01*
X015774Y004974D01*
X015778Y004957D01*
X015780Y004940D01*
X015780Y004340D01*
X015778Y004323D01*
X015774Y004306D01*
X015767Y004290D01*
X015757Y004276D01*
X015744Y004263D01*
X015730Y004253D01*
X015714Y004246D01*
X015697Y004242D01*
X015680Y004240D01*
X015690Y008340D02*
X016190Y008340D01*
X016440Y008590D01*
X016440Y009090D01*
X016190Y009340D01*
X015690Y009340D01*
X015440Y009090D01*
X015190Y009340D01*
X014690Y009340D01*
X014440Y009090D01*
X014190Y009340D01*
X013690Y009340D01*
X013440Y009090D01*
X013190Y009340D01*
X012690Y009340D01*
X012440Y009090D01*
X012190Y009340D01*
X011690Y009340D01*
X011440Y009090D01*
X011190Y009340D01*
X010690Y009340D01*
X010440Y009090D01*
X010190Y009340D01*
X009690Y009340D01*
X009440Y009090D01*
X009190Y009340D01*
X008690Y009340D01*
X008440Y009090D01*
X008190Y009340D01*
X007690Y009340D01*
X007440Y009090D01*
X007190Y009340D01*
X006690Y009340D01*
X006440Y009090D01*
X006190Y009340D01*
X005690Y009340D01*
X005440Y009090D01*
X005190Y009340D01*
X004690Y009340D01*
X004440Y009090D01*
X004190Y009340D01*
X003690Y009340D01*
X003440Y009090D01*
X003190Y009340D01*
X002690Y009340D01*
X002440Y009090D01*
X002440Y008590D01*
X002690Y008340D01*
X003190Y008340D01*
X003440Y008590D01*
X003690Y008340D01*
X004190Y008340D01*
X004440Y008590D01*
X004440Y009090D01*
X004440Y008590D02*
X004690Y008340D01*
X005190Y008340D01*
X005440Y008590D01*
X005690Y008340D01*
X006190Y008340D01*
X006440Y008590D01*
X006690Y008340D01*
X007190Y008340D01*
X007440Y008590D01*
X007440Y009090D01*
X007440Y008590D02*
X007690Y008340D01*
X008190Y008340D01*
X008440Y008590D01*
X008690Y008340D01*
X009190Y008340D01*
X009440Y008590D01*
X009690Y008340D01*
X010190Y008340D01*
X010440Y008590D01*
X010440Y009090D01*
X010440Y008590D02*
X010690Y008340D01*
X011190Y008340D01*
X011440Y008590D01*
X011690Y008340D01*
X012190Y008340D01*
X012440Y008590D01*
X012690Y008340D01*
X013190Y008340D01*
X013440Y008590D01*
X013440Y009090D01*
X013440Y008590D02*
X013690Y008340D01*
X014190Y008340D01*
X014440Y008590D01*
X014690Y008340D01*
X015190Y008340D01*
X015440Y008590D01*
X015690Y008340D01*
X015440Y008590D02*
X015440Y009090D01*
X014440Y009090D02*
X014440Y008590D01*
X012440Y008590D02*
X012440Y009090D01*
X011440Y009090D02*
X011440Y008590D01*
X009440Y008590D02*
X009440Y009090D01*
X008440Y009090D02*
X008440Y008590D01*
X006440Y008590D02*
X006440Y009090D01*
X005440Y009090D02*
X005440Y008590D01*
X003440Y008590D02*
X003440Y009090D01*
X002440Y009090D02*
X002440Y008590D01*
X002190Y008340D01*
X001690Y008340D01*
X001440Y008590D01*
X001190Y008340D01*
X000690Y008340D01*
X000440Y008590D01*
X000440Y009090D01*
X000690Y009340D01*
X001190Y009340D01*
X001440Y009090D01*
X001440Y008590D01*
X001440Y009090D01*
X001690Y009340D01*
X002190Y009340D01*
X002440Y009090D01*
X016440Y009090D02*
X016690Y009340D01*
X017190Y009340D01*
X017440Y009090D01*
X017690Y009340D01*
X018190Y009340D01*
X018440Y009090D01*
X018440Y008590D01*
X018190Y008340D01*
X017690Y008340D01*
X017440Y008590D01*
X017440Y009090D01*
X017440Y008590D02*
X017190Y008340D01*
X016690Y008340D01*
X016440Y008590D01*
D14*
X004796Y004645D03*
X004796Y003645D03*
D15*
X012613Y004915D02*
X012615Y004938D01*
X012621Y004960D01*
X012630Y004982D01*
X012643Y005001D01*
X012658Y005018D01*
X012676Y005032D01*
X012697Y005043D01*
X012719Y005051D01*
X012741Y005055D01*
X012765Y005055D01*
X012787Y005051D01*
X012809Y005043D01*
X012830Y005032D01*
X012848Y005018D01*
X012863Y005001D01*
X012876Y004982D01*
X012885Y004960D01*
X012891Y004938D01*
X012893Y004915D01*
X012891Y004892D01*
X012885Y004870D01*
X012876Y004848D01*
X012863Y004829D01*
X012848Y004812D01*
X012830Y004798D01*
X012809Y004787D01*
X012787Y004779D01*
X012765Y004775D01*
X012741Y004775D01*
X012719Y004779D01*
X012697Y004787D01*
X012676Y004798D01*
X012658Y004812D01*
X012643Y004829D01*
X012630Y004848D01*
X012621Y004870D01*
X012615Y004892D01*
X012613Y004915D01*
X012710Y005060D02*
X012685Y005049D01*
X012662Y005035D01*
X012641Y005017D01*
X012623Y004997D01*
X012607Y004975D01*
X012595Y004951D01*
X012587Y004925D01*
X012582Y004898D01*
X012581Y004871D01*
X012584Y004844D01*
X012590Y004818D01*
X012600Y004792D01*
X012614Y004769D01*
X012631Y004747D01*
X012650Y004729D01*
X012672Y004713D01*
X012696Y004700D01*
X012721Y004691D01*
X012748Y004685D01*
X012775Y004683D01*
X012802Y004685D01*
X012829Y004691D01*
X012854Y004700D01*
X012878Y004713D01*
X012900Y004729D01*
X012919Y004747D01*
X012936Y004769D01*
X012950Y004792D01*
X012960Y004818D01*
X012966Y004844D01*
X012969Y004871D01*
X012968Y004898D01*
X012963Y004925D01*
X012955Y004951D01*
X012943Y004975D01*
X012927Y004997D01*
X012909Y005017D01*
X012888Y005035D01*
X012865Y005049D01*
X012840Y005060D01*
X012613Y005205D02*
X012615Y005228D01*
X012621Y005250D01*
X012630Y005272D01*
X012643Y005291D01*
X012658Y005308D01*
X012676Y005322D01*
X012697Y005333D01*
X012719Y005341D01*
X012741Y005345D01*
X012765Y005345D01*
X012787Y005341D01*
X012809Y005333D01*
X012830Y005322D01*
X012848Y005308D01*
X012863Y005291D01*
X012876Y005272D01*
X012885Y005250D01*
X012891Y005228D01*
X012893Y005205D01*
X012891Y005182D01*
X012885Y005160D01*
X012876Y005138D01*
X012863Y005119D01*
X012848Y005102D01*
X012830Y005088D01*
X012809Y005077D01*
X012787Y005069D01*
X012765Y005065D01*
X012741Y005065D01*
X012719Y005069D01*
X012697Y005077D01*
X012676Y005088D01*
X012658Y005102D01*
X012643Y005119D01*
X012630Y005138D01*
X012621Y005160D01*
X012615Y005182D01*
X012613Y005205D01*
X012710Y005070D02*
X012685Y005081D01*
X012662Y005095D01*
X012641Y005113D01*
X012623Y005133D01*
X012607Y005155D01*
X012595Y005179D01*
X012587Y005205D01*
X012582Y005232D01*
X012581Y005259D01*
X012584Y005286D01*
X012590Y005312D01*
X012600Y005338D01*
X012614Y005361D01*
X012631Y005383D01*
X012650Y005401D01*
X012672Y005417D01*
X012696Y005430D01*
X012721Y005439D01*
X012748Y005445D01*
X012775Y005447D01*
X012802Y005445D01*
X012829Y005439D01*
X012854Y005430D01*
X012878Y005417D01*
X012900Y005401D01*
X012919Y005383D01*
X012936Y005361D01*
X012950Y005338D01*
X012960Y005312D01*
X012966Y005286D01*
X012969Y005259D01*
X012968Y005232D01*
X012963Y005205D01*
X012955Y005179D01*
X012943Y005155D01*
X012927Y005133D01*
X012909Y005113D01*
X012888Y005095D01*
X012865Y005081D01*
X012840Y005070D01*
D16*
X013459Y005428D02*
X013506Y005351D01*
X013540Y005268D01*
X013560Y005180D01*
X013570Y005180D01*
X013597Y005217D01*
X013632Y005246D01*
X013672Y005267D01*
X013716Y005278D01*
X013761Y005279D01*
X013806Y005270D01*
X013847Y005251D01*
X013883Y005223D01*
X013912Y005188D01*
X013932Y005147D01*
X013942Y005103D01*
X013942Y005057D01*
X013932Y005013D01*
X013912Y004972D01*
X013883Y004937D01*
X013847Y004909D01*
X013806Y004890D01*
X013761Y004881D01*
X013716Y004882D01*
X013672Y004893D01*
X013632Y004914D01*
X013597Y004943D01*
X013570Y004980D01*
X013550Y004890D01*
X013516Y004805D01*
X013468Y004727D01*
X013408Y004658D01*
X013337Y004599D01*
X013258Y004553D01*
X013172Y004520D01*
X013082Y004502D01*
X012990Y004499D01*
X012216Y004499D01*
X012145Y004410D01*
X012370Y004185D01*
X012595Y004361D01*
X012668Y004320D01*
X012746Y004287D01*
X012827Y004263D01*
X012868Y003979D01*
X013192Y003979D01*
X013223Y004273D01*
X013338Y004313D01*
X013445Y004371D01*
X013690Y004195D01*
X013895Y004400D01*
X013719Y004665D01*
X013772Y004767D01*
X013807Y004877D01*
X014111Y004918D01*
X014111Y005232D01*
X013827Y005273D01*
X013787Y005388D01*
X013729Y005495D01*
X013895Y005730D01*
X013680Y005955D01*
X013435Y005779D01*
X013328Y005832D01*
X013213Y005867D01*
X013182Y006161D01*
X012868Y006161D01*
X012817Y005867D01*
X012697Y005833D01*
X012585Y005779D01*
X012360Y005945D01*
X012145Y005730D01*
X012196Y005651D01*
X012990Y005651D01*
X013080Y005648D01*
X013168Y005630D01*
X013253Y005599D01*
X013331Y005553D01*
X013400Y005496D01*
X013459Y005428D01*
X013432Y005459D02*
X013749Y005459D01*
X013773Y005558D02*
X013323Y005558D01*
X013501Y005361D02*
X013797Y005361D01*
X013823Y005262D02*
X013906Y005262D01*
X013924Y005164D02*
X014111Y005164D01*
X014111Y005065D02*
X013942Y005065D01*
X013907Y004967D02*
X014111Y004967D01*
X013805Y004868D02*
X013541Y004868D01*
X013567Y004967D02*
X013580Y004967D01*
X013494Y004770D02*
X013773Y004770D01*
X013722Y004671D02*
X013419Y004671D01*
X013291Y004573D02*
X013780Y004573D01*
X013846Y004474D02*
X012196Y004474D01*
X012180Y004376D02*
X013870Y004376D01*
X013772Y004277D02*
X013576Y004277D01*
X013236Y004277D02*
X012779Y004277D01*
X012839Y004179D02*
X013213Y004179D01*
X013203Y004080D02*
X012853Y004080D01*
X012867Y003982D02*
X013193Y003982D01*
X012487Y004277D02*
X012278Y004277D01*
X013542Y005262D02*
X013663Y005262D01*
X013843Y005656D02*
X012193Y005656D01*
X012170Y005755D02*
X013871Y005755D01*
X013777Y005853D02*
X013538Y005853D01*
X013675Y005952D02*
X013683Y005952D01*
X013260Y005853D02*
X012767Y005853D01*
X012831Y005952D02*
X013204Y005952D01*
X013194Y006050D02*
X012848Y006050D01*
X012866Y006149D02*
X013184Y006149D01*
X012485Y005853D02*
X012268Y005853D01*
M02*
